HIERARCHY
ROOT Hips
{
  OFFSET -5.66989 14.5892 -1.04108
  CHANNELS 6 Xposition Yposition Zposition Zrotation Xrotation Yrotation
  JOINT Bip01_Pelvis
  {
    OFFSET 0 0 0
    CHANNELS 6 Xposition Yposition Zposition Zrotation Xrotation Yrotation
    JOINT BN_Tail_01
    {
      OFFSET -1.93658 -0.0537033 0
      CHANNELS 6 Xposition Yposition Zposition Zrotation Xrotation Yrotation
      JOINT BN_Tail_02
      {
        OFFSET 3.80098 0 0
        CHANNELS 6 Xposition Yposition Zposition Zrotation Xrotation Yrotation
        JOINT BN_Tail_03
        {
          OFFSET 4.13452 0 0
          CHANNELS 6 Xposition Yposition Zposition Zrotation Xrotation Yrotation
          End Site
          {
            OFFSET 0 0 0
          }
        }
      }
    }
    JOINT Bip01_Spine
    {
      OFFSET 2.49484 0.4396 -0.350589
      CHANNELS 6 Xposition Yposition Zposition Zrotation Xrotation Yrotation
      JOINT Bip01_R_Thigh
      {
        OFFSET -2.36788 -0.528529 -2.17686
        CHANNELS 6 Xposition Yposition Zposition Zrotation Xrotation Yrotation
        JOINT Bip01_R_Calf
        {
          OFFSET 7.16877 0 0
          CHANNELS 6 Xposition Yposition Zposition Zrotation Xrotation Yrotation
          JOINT Bip01_R_HorseLink
          {
            OFFSET 5.71658 0 0
            CHANNELS 6 Xposition Yposition Zposition Zrotation Xrotation Yrotation
            JOINT Bip01_R_Foot
            {
              OFFSET 4.09528 0 0
              CHANNELS 6 Xposition Yposition Zposition Zrotation Xrotation Yrotation
              JOINT Bip01_R_Toe3
              {
                OFFSET 0.688901 -0.165618 -0.0515646
                CHANNELS 6 Xposition Yposition Zposition Zrotation Xrotation Yrotation
                JOINT Bip01_R_Toe3Nub
                {
                  OFFSET 2.31698 0 0
                  CHANNELS 6 Xposition Yposition Zposition Zrotation Xrotation Yrotation
                  End Site
                  {
                    OFFSET 0 0 0
                  }
                }
              }
              JOINT Bip01_R_Toe2
              {
                OFFSET 0.917067 0.515958 -0.245308
                CHANNELS 6 Xposition Yposition Zposition Zrotation Xrotation Yrotation
                JOINT Bip01_R_Toe2Nub
                {
                  OFFSET 2.54684 0 0
                  CHANNELS 6 Xposition Yposition Zposition Zrotation Xrotation Yrotation
                  End Site
                  {
                    OFFSET 0 0 0
                  }
                }
              }
              JOINT Bip01_R_Toe1
              {
                OFFSET 0.948626 0.783529 0.204368
                CHANNELS 6 Xposition Yposition Zposition Zrotation Xrotation Yrotation
                JOINT Bip01_R_Toe1Nub
                {
                  OFFSET 2.98415 0 0
                  CHANNELS 6 Xposition Yposition Zposition Zrotation Xrotation Yrotation
                  End Site
                  {
                    OFFSET 0 0 0
                  }
                }
              }
              JOINT Bip01_R_Toe0
              {
                OFFSET 0.945014 0.361084 0.455508
                CHANNELS 6 Xposition Yposition Zposition Zrotation Xrotation Yrotation
                JOINT Bip01_R_Toe0Nub
                {
                  OFFSET 2.53654 0 0
                  CHANNELS 6 Xposition Yposition Zposition Zrotation Xrotation Yrotation
                  End Site
                  {
                    OFFSET 0 0 0
                  }
                }
              }
            }
          }
        }
      }
      JOINT Bip01_L_Thigh
      {
        OFFSET -2.59706 -0.617793 2.62045
        CHANNELS 6 Xposition Yposition Zposition Zrotation Xrotation Yrotation
        JOINT Bip01_L_Calf
        {
          OFFSET 7.16876 0 0
          CHANNELS 6 Xposition Yposition Zposition Zrotation Xrotation Yrotation
          JOINT Bip01_L_HorseLink
          {
            OFFSET 5.71658 0 0
            CHANNELS 6 Xposition Yposition Zposition Zrotation Xrotation Yrotation
            JOINT Bip01_L_Foot
            {
              OFFSET 4.09528 0 0
              CHANNELS 6 Xposition Yposition Zposition Zrotation Xrotation Yrotation
              JOINT Bip01_L_Toe3
              {
                OFFSET 0.688902 -0.165618 0.0515647
                CHANNELS 6 Xposition Yposition Zposition Zrotation Xrotation Yrotation
                JOINT Bip01_L_Toe3Nub
                {
                  OFFSET 2.31698 0 0
                  CHANNELS 6 Xposition Yposition Zposition Zrotation Xrotation Yrotation
                  End Site
                  {
                    OFFSET 0 0 0
                  }
                }
              }
              JOINT Bip01_L_Toe2
              {
                OFFSET 0.917065 0.515959 0.245311
                CHANNELS 6 Xposition Yposition Zposition Zrotation Xrotation Yrotation
                JOINT Bip01_L_Toe2Nub
                {
                  OFFSET 2.54684 0 0
                  CHANNELS 6 Xposition Yposition Zposition Zrotation Xrotation Yrotation
                  End Site
                  {
                    OFFSET 0 0 0
                  }
                }
              }
              JOINT Bip01_L_Toe1
              {
                OFFSET 0.948627 0.78353 -0.204366
                CHANNELS 6 Xposition Yposition Zposition Zrotation Xrotation Yrotation
                JOINT Bip01_L_Toe1Nub
                {
                  OFFSET 2.98415 0 0
                  CHANNELS 6 Xposition Yposition Zposition Zrotation Xrotation Yrotation
                  End Site
                  {
                    OFFSET 0 0 0
                  }
                }
              }
              JOINT Bip01_L_Toe0
              {
                OFFSET 0.945014 0.361085 -0.455508
                CHANNELS 6 Xposition Yposition Zposition Zrotation Xrotation Yrotation
                JOINT Bip01_L_Toe0Nub
                {
                  OFFSET 2.53654 0 0
                  CHANNELS 6 Xposition Yposition Zposition Zrotation Xrotation Yrotation
                  End Site
                  {
                    OFFSET 0 0 0
                  }
                }
              }
            }
          }
        }
      }
      JOINT Bip01_Spine1
      {
        OFFSET 3.72608 -0.00323868 0.000187963
        CHANNELS 6 Xposition Yposition Zposition Zrotation Xrotation Yrotation
        JOINT BN_Finger_R_01
        {
          OFFSET 3.00123 -0.0843508 -4.58748
          CHANNELS 6 Xposition Yposition Zposition Zrotation Xrotation Yrotation
          JOINT BN_Finger_R_02
          {
            OFFSET 5.88015 0 0
            CHANNELS 6 Xposition Yposition Zposition Zrotation Xrotation Yrotation
            End Site
            {
              OFFSET 0 0 0
            }
          }
        }
        JOINT BN_Finger_L_01
        {
          OFFSET 3.00122 -0.0843704 4.58724
          CHANNELS 6 Xposition Yposition Zposition Zrotation Xrotation Yrotation
          JOINT BN_Finger_L_02
          {
            OFFSET 5.88015 0 0
            CHANNELS 6 Xposition Yposition Zposition Zrotation Xrotation Yrotation
            End Site
            {
              OFFSET 0 0 0
            }
          }
        }
        JOINT Bip01_Neck
        {
          OFFSET 4.13883 -0.0022707 1.01402e-005
          CHANNELS 6 Xposition Yposition Zposition Zrotation Xrotation Yrotation
          JOINT Bip01_Neck1
          {
            OFFSET 3.21838 -0.00219488 -2.03252e-005
            CHANNELS 6 Xposition Yposition Zposition Zrotation Xrotation Yrotation
            JOINT Bip01_Neck2
            {
              OFFSET 3.42188 -0.00260592 1.77622e-005
              CHANNELS 6 Xposition Yposition Zposition Zrotation Xrotation Yrotation
              JOINT Bip01_Head
              {
                OFFSET 3.32298 0 0
                CHANNELS 6 Xposition Yposition Zposition Zrotation Xrotation Yrotation
                JOINT BN_Mouth_01
                {
                  OFFSET 1.65821 0.977865 2.28871e-005
                  CHANNELS 6 Xposition Yposition Zposition Zrotation Xrotation Yrotation
                  End Site
                  {
                    OFFSET 0 0 0
                  }
                }
                JOINT Bip01_HeadNub
                {
                  OFFSET 4.48783 0 0
                  CHANNELS 6 Xposition Yposition Zposition Zrotation Xrotation Yrotation
                  End Site
                  {
                    OFFSET 0 0 0
                  }
                }
              }
            }
          }
        }
      }
    }
  }
}
MOTION
Frames:	4
Frame Time:	0.0333333
-1.08283 13.4183 0.0568737 -133.42 -89.2031 -45.7721 9.53674e-007 -2.77556e-017 1.11022e-016 -90.0643 -18.5976 -91.4992 -1.93658 -0.0537062 -2.5034e-006 11.9609 0.00726311 179.791 3.80098 1.77636e-015 -4.16334e-017 -0.766963 0.159905 0.287097 4.13452 -9.53674e-007 4.996e-016 -2.13981 0.0344715 0.994976 2.49328 -0.57574 -5.06639e-006 -7.43754 -0.0283126 2.07037 -2.44137 0.694888 -2.42351 -123.314 2.03772 179.667 7.16876 -8.88178e-016 1.77636e-015 -97.2669 -9.12476e-006 3.96962e-006 5.71658 -4.76837e-007 2.38419e-007 96.093 5.6748e-006 -8.32437e-006 4.09528 -8.88179e-016 -2.38419e-007 -21.549 0.545929 1.61883 0.688901 -0.165616 -0.0515647 105.734 -3.13904 169.774 2.31699 -2.38419e-007 8.88178e-016 -1.03516e-005 -8.40203e-008 1.39872e-007 0.917067 0.515958 -0.245308 77.0486 -4.24208 22.1488 2.54683 -1.22125e-015 5.96046e-008 7.44855e-007 9.67283e-006 6.06915e-007 0.948626 0.783529 0.204366 80.0077 2.8533 -15.322 2.98415 -1.49012e-008 2.22045e-015 -9.80244e-006 2.00805e-008 2.2472e-006 0.945014 0.361086 0.455508 83.5816 9.18697 -52.8784 2.53654 1.55431e-015 0 -3.0185e-007 -6.00733e-008 2.47893e-006 -2.48034 0.707474 2.37993 -134.375 3.54635 -174.793 7.16876 -2.66454e-015 1.33227e-015 -90.722 -9.32825e-006 -1.78271e-005 5.71658 -8.88179e-016 2.38419e-007 101.307 6.10818e-008 -9.72983e-006 4.09528 -3.99681e-015 -1.33227e-015 -44.4957 4.67774 -1.618 0.688901 -0.165616 0.0515621 106.155 3.13916 -169.769 2.31698 3.27516e-015 2.22045e-015 -180 -9.88651e-006 -1.61572e-006 0.917067 0.515958 0.245308 77.469 4.23891 -22.1418 2.54684 -5.96047e-008 1.33227e-015 -180 -1.09068e-006 -2.12027e-006 0.948626 0.783529 -0.204366 80.4287 -2.85493 15.3228 2.98415 4.10783e-015 -2.38419e-007 -180 -8.93278e-006 -9.66125e-006 0.945014 0.361087 -0.455508 84.0004 -9.18676 52.8618 2.53654 1.11022e-016 2.98023e-007 -180 -1.02994e-005 -9.4909e-006 3.72689 -0.00328922 -5.0962e-006 -0.951447 0.0520296 0.605572 3.00123 -0.0843515 -4.58748 7.35958 1.37076 172.103 5.88015 -3.55271e-015 -2.66454e-015 2.58213 0.0111256 11.3438 3.00122 -0.0843687 4.58724 -168.3 0.9864 -7.90244 5.88015 -2.86102e-006 -2.38419e-006 -2.51238 -0.0207754 11.4265 4.13959 -0.00252533 -0.000134677 -5.41421 5.66795 -0.254669 3.22065 -0.00264454 -0.000109226 7.72691 3.1893 0.0135584 3.42197 -0.00258827 -0.000106499 21.261 1.77894 6.35886 3.32298 -9.53674e-007 5.96046e-008 40.105 -2.30109 8.25758 1.65821 0.977863 2.30686e-005 -151.92 -1.52588e-005 -180 4.48783 3.55271e-015 -1.19209e-007 -2.73835e-007 9.80456e-006 1.86578e-007 
-1.20807 13.4763 0.0474446 -138.547 -89.2696 -51.6142 9.53674e-007 -2.77556e-017 5.55112e-017 -90.0829 -19.615 -91.197 -1.93658 -0.0537062 -2.5034e-006 11.869 0.00035097 179.595 3.80098 0 -2.77556e-017 -0.396061 0.164269 -0.0771028 4.13452 -9.53674e-007 4.02456e-016 -1.97737 0.0491392 0.651638 2.49328 -0.57574 -5.06639e-006 -8.17604 0.0140631 1.7951 -2.44137 0.694888 -2.42351 -123.219 2.12012 179.684 7.16876 -2.66454e-015 1.33227e-015 -96.4966 -1.06098e-005 3.91146e-006 5.71658 -4.76837e-007 2.38419e-007 95.9646 2.60935e-006 -7.96873e-006 4.09528 2.22045e-016 -2.38419e-007 -22.6821 0.679497 1.64359 0.688901 -0.165616 -0.0515647 105.88 -3.14091 169.775 2.31699 -2.38419e-007 0 -1.03516e-005 -8.40203e-008 1.39872e-007 0.917067 0.515958 -0.245308 77.194 -4.24326 22.1457 2.54683 -4.77396e-015 5.96046e-008 7.44855e-007 9.67283e-006 6.06915e-007 0.948626 0.783529 0.204366 80.1535 2.85154 -15.3226 2.98415 -1.49012e-008 1.77636e-015 -9.80244e-006 2.00805e-008 2.24715e-006 0.945014 0.361086 0.455508 83.7274 9.18517 -52.8789 2.53654 5.77316e-015 2.22045e-015 -3.0185e-007 -6.00735e-008 1.48874e-006 -2.48034 0.707474 2.37993 -134.015 3.64653 -174.855 7.16876 -3.55271e-015 0 -89.5812 -9.69314e-006 -1.76277e-005 5.71658 1.77636e-015 2.38419e-007 100.778 2.4656e-006 -1.01867e-005 4.09528 -1.77636e-015 -8.88178e-016 -44.9406 4.78606 -1.52138 0.688901 -0.165616 0.0515621 105.914 3.13914 -169.769 2.31698 2.22045e-015 8.88178e-016 -180 -9.88651e-006 -1.61572e-006 0.917067 0.515958 0.245308 77.2284 4.23987 -22.1458 2.54684 -5.96047e-008 2.22045e-015 -180 -1.09068e-006 -1.39893e-007 0.948626 0.783529 -0.204366 80.1877 -2.85479 15.3221 2.98415 5.4401e-015 -2.38419e-007 -180 -8.93278e-006 -1.64341e-006 0.945014 0.361087 -0.455508 83.7586 -9.1862 52.8574 2.53654 -1.55431e-015 2.98023e-007 -180 -1.02994e-005 5.26929e-007 3.72689 -0.00328922 -5.0962e-006 -0.672251 0.0524758 0.636067 3.00123 -0.0843515 -4.58748 7.37627 1.36735 172.094 5.88015 -5.32907e-015 -8.88178e-016 2.87175 0.0531423 11.3421 3.00122 -0.0843687 4.58724 -168.287 0.986048 -7.89518 5.88015 -2.86102e-006 -2.38419e-006 -2.80127 -0.0574989 11.4174 4.13959 -0.00252533 -0.000134677 -2.02034 6.18999 -0.79448 3.22065 -0.00264454 -0.000109226 6.70199 3.02462 -0.120289 3.42197 -0.00258827 -0.000106499 19.9388 1.48134 6.06398 3.32298 -9.53674e-007 5.96046e-008 38.9164 -3.5128 9.63858 1.65821 0.977863 2.30679e-005 -149.138 -0.00244141 -179.999 4.48783 1.42109e-014 -1.19209e-007 -2.73835e-007 9.80456e-006 1.86578e-007 
-1.34569 13.5235 0.0319226 -142.009 -89.3058 -55.6738 9.53674e-007 -2.77556e-017 -1.66533e-016 -90.0958 -20.6991 -90.8487 -1.93658 -0.0537062 -2.5034e-006 11.8108 -0.00837657 179.385 3.80098 1.77636e-015 3.81639e-017 -0.0633898 0.16416 -0.383418 4.13452 -9.53674e-007 4.71845e-016 -1.57085 0.0644119 0.262788 2.49328 -0.57574 -5.06639e-006 -8.91388 0.0682881 1.45169 -2.44137 0.694888 -2.42351 -123.505 2.14327 179.629 7.16876 -1.77636e-015 8.88178e-016 -95.9454 -1.0562e-005 4.01929e-006 5.71658 -4.76837e-007 2.38419e-007 95.7978 9.26002e-006 -8.62374e-006 4.09528 3.33067e-015 -2.38419e-007 -23.8695 0.70589 1.71354 0.688901 -0.165616 -0.0515647 106.142 -3.14157 169.774 2.31699 -2.38419e-007 0 -1.03516e-005 -8.40203e-008 1.399e-007 0.917067 0.515958 -0.245308 77.456 -4.24247 22.1412 2.54683 -1.94289e-015 5.96046e-008 7.44826e-007 9.67283e-006 6.06921e-007 0.948626 0.783529 0.204366 80.4159 2.85142 -15.3233 2.98415 -1.49012e-008 -4.44089e-016 -9.80244e-006 2.00806e-008 1.24719e-006 0.945014 0.361086 0.455508 83.99 9.18502 -52.8799 2.53654 -1.60982e-015 1.33227e-015 -3.0185e-007 -6.00734e-008 1.48874e-006 -2.48034 0.707474 2.37993 -133.927 3.72279 -174.957 7.16876 8.88179e-016 0 -88.5663 1.72945e-005 -1.81224e-005 5.71658 -1.33227e-015 2.38419e-007 100.301 -3.34225e-007 -9.66061e-006 4.09528 -8.88179e-016 0 -45.4486 4.842 -1.39932 0.688901 -0.165616 0.0515621 105.718 3.13919 -169.769 2.31698 2.88658e-015 2.22045e-015 -180 -9.88651e-006 -1.61572e-006 0.917067 0.515958 0.245308 77.0331 4.24072 -22.1494 2.54684 -5.96047e-008 1.77636e-015 -180 -1.09068e-006 -1.39886e-007 0.948626 0.783529 -0.204366 79.9921 -2.85471 15.3217 2.98415 1.55431e-015 -2.38419e-007 -180 -8.93278e-006 -1.6434e-006 0.945014 0.361087 -0.455508 83.5625 -9.18582 52.8548 2.53654 3.77476e-015 2.98023e-007 -180 -1.02994e-005 5.26958e-007 3.72689 -0.00328922 -5.0962e-006 -0.326105 0.0553776 0.642556 3.00123 -0.0843515 -4.58748 7.47154 1.35224 172.077 5.88015 -3.55271e-015 0 3.05203 0.0605243 11.3406 3.00122 -0.0843687 4.58724 -168.197 0.975918 -7.88569 5.88015 -2.86102e-006 -2.38419e-006 -2.98079 -0.0687693 11.4141 4.13959 -0.00252533 -0.000134677 1.18691 6.62901 -1.62377 3.22065 -0.00264454 -0.000109226 5.70189 2.83972 -0.483122 3.42197 -0.00258827 -0.000106499 18.6644 1.12861 5.50885 3.32298 -9.53674e-007 5.96046e-008 38.095 -5.41054 11.3707 1.65821 0.977863 2.30671e-005 -147.123 1.52588e-005 -180 4.48783 0 -1.19209e-007 -2.73835e-007 9.80456e-006 1.86578e-007 
-1.49917 13.5564 0.00716992 -141.717 -89.3033 -55.7611 9.53674e-007 -2.77556e-017 -1.11022e-016 -90.101 -21.806 -90.4675 -1.93658 -0.0537062 -2.5034e-006 11.7674 -0.00527895 179.141 3.80098 0 1.73472e-017 0.26338 0.160657 -0.671731 4.13452 -9.53674e-007 3.88578e-016 -1.06355 0.0734492 -0.0994299 2.49328 -0.57574 -5.06639e-006 -9.67597 0.131513 1.04142 -2.44137 0.694888 -2.42351 -124.304 2.09253 179.477 7.16876 -2.66454e-015 1.33227e-015 -95.7346 -3.48571e-006 4.78553e-006 5.71658 -4.76837e-007 2.38419e-007 95.5261 4.32518e-006 -8.10089e-006 4.09528 -1.11022e-015 -2.38419e-007 -25.0535 0.586731 1.84198 0.688901 -0.165616 -0.0515647 106.567 -3.14348 169.772 2.31699 -2.38419e-007 4.44089e-016 -1.03516e-005 -8.40221e-008 1.01578e-005 0.917067 0.515958 -0.245308 77.8489 -4.24577 22.1346 2.54683 -8.88179e-016 5.96046e-008 -9.27304e-006 9.67283e-006 1.60692e-006 0.948626 0.783529 0.204366 80.8087 2.85764 -15.3241 2.98415 -1.49012e-008 -4.44089e-016 -9.80244e-006 2.00788e-008 1.12651e-005 0.945014 0.361086 0.455508 84.3888 9.19984 -52.8798 2.53654 1.72085e-015 7.10543e-015 -3.0185e-007 -6.00733e-008 3.48873e-006 -2.48034 0.707474 2.37993 -134.216 3.75706 -175.114 7.16876 -1.77636e-015 4.44089e-016 -87.7669 1.70252e-005 -1.83412e-005 5.71658 8.88179e-016 2.38419e-007 99.8362 8.36102e-006 -1.11771e-005 4.09528 -1.33227e-015 4.44089e-016 -45.9896 4.816 -1.2406 0.688901 -0.165616 0.0515621 105.591 3.13917 -169.769 2.31698 4.44089e-016 1.33227e-015 -180 -9.88651e-006 -1.61572e-006 0.917067 0.515958 0.245308 76.9063 4.24134 -22.1518 2.54684 -5.96047e-008 2.22045e-015 -180 -1.09068e-006 -1.39887e-007 0.948626 0.783529 -0.204366 79.865 -2.85469 15.3216 2.98415 2.33147e-015 -2.38419e-007 -180 -8.93278e-006 -9.66128e-006 0.945014 0.361087 -0.455508 83.4352 -9.18562 52.8536 2.53654 1.11022e-015 2.98023e-007 -180 -1.02994e-005 -1.47303e-006 3.72689 -0.00328922 -5.0962e-006 0.0180842 0.0607506 0.612008 3.00123 -0.0843515 -4.58748 7.64611 1.32546 172.054 5.88015 -8.88179e-015 -8.88178e-016 3.13148 0.0712287 11.3385 3.00122 -0.0843687 4.58724 -168.033 0.957218 -7.86911 5.88015 -2.86102e-006 -2.38419e-006 -3.06658 -0.0604275 11.4148 4.13959 -0.00252533 -0.000134677 3.84663 6.83637 -3.16993 3.22065 -0.00264454 -0.000109226 4.77008 2.56793 -1.46748 3.42197 -0.00258827 -0.000106499 17.5531 0.594012 4.32713 3.32298 -9.53674e-007 5.96046e-008 38.8198 -9.09635 14.0534 1.65821 0.977863 2.30666e-005 -146.26 -0.0166473 -179.995 4.48783 -3.55271e-015 -1.19209e-007 -2.73835e-007 9.80456e-006 1.86578e-007 
